<svg width="25" height="25" viewBox="0 0 25 25" fill="none" xmlns="http://www.w3.org/2000/svg">
<path d="M20.3125 9.375H4.6875C3.82812 9.375 3.125 8.67188 3.125 7.8125V4.6875C3.125 3.82812 3.82812 3.125 4.6875 3.125H20.3125C21.1719 3.125 21.875 3.82812 21.875 4.6875V7.8125C21.875 8.67188 21.1719 9.375 20.3125 9.375Z" stroke="black" stroke-width="2" stroke-miterlimit="10" stroke-linecap="round" stroke-linejoin="round"/>
<path d="M6.25 5.46875V7.03125" stroke="black" stroke-width="2" stroke-miterlimit="10" stroke-linecap="round" stroke-linejoin="round"/>
<path d="M8.59375 5.46875V7.03125" stroke="black" stroke-width="2" stroke-miterlimit="10" stroke-linecap="round" stroke-linejoin="round"/>
<path d="M16.4062 7.81249C16.1719 7.81249 16.0156 7.73437 15.8594 7.57812C15.7031 7.42187 15.625 7.26562 15.625 7.03124C15.625 6.95312 15.625 6.79687 15.7031 6.71874C15.7813 6.64062 15.7812 6.56249 15.8594 6.48437C15.9375 6.40624 16.0156 6.32812 16.0938 6.32812C16.4063 6.17187 16.7188 6.24999 16.9531 6.48437C17.0313 6.56249 17.1094 6.64062 17.1094 6.71874C17.1875 6.79687 17.1875 6.95312 17.1875 7.03124C17.1875 7.26562 17.1094 7.42187 16.9531 7.57812C16.7969 7.73437 16.6406 7.81249 16.4062 7.81249Z" fill="black"/>
<path d="M18.75 7.81249C18.5156 7.81249 18.3594 7.73437 18.2031 7.57812C18.0469 7.42187 17.9688 7.26562 17.9688 7.03124C17.9688 6.95312 17.9688 6.79687 18.0469 6.71874C18.125 6.64062 18.125 6.56249 18.2031 6.48437C18.2812 6.40624 18.3594 6.32812 18.4375 6.32812C18.75 6.17187 19.0625 6.24999 19.2969 6.48437C19.375 6.56249 19.4531 6.64062 19.4531 6.71874C19.5312 6.79687 19.5312 6.95312 19.5312 7.03124C19.5312 7.26562 19.4531 7.42187 19.2969 7.57812C19.1406 7.73437 18.9844 7.81249 18.75 7.81249Z" fill="black"/>
<path d="M20.3125 15.625H4.6875C3.82812 15.625 3.125 14.9219 3.125 14.0625V10.9375C3.125 10.0781 3.82812 9.375 4.6875 9.375H20.3125C21.1719 9.375 21.875 10.0781 21.875 10.9375V14.0625C21.875 14.9219 21.1719 15.625 20.3125 15.625Z" stroke="black" stroke-width="2" stroke-miterlimit="10" stroke-linecap="round" stroke-linejoin="round"/>
<path d="M6.25 11.7188V13.2812" stroke="black" stroke-width="2" stroke-miterlimit="10" stroke-linecap="round" stroke-linejoin="round"/>
<path d="M8.59375 11.7188V13.2812" stroke="black" stroke-width="2" stroke-miterlimit="10" stroke-linecap="round" stroke-linejoin="round"/>
<path d="M16.4062 14.0626C16.1719 14.0626 16.0156 13.9845 15.8594 13.8282C15.7031 13.672 15.625 13.5157 15.625 13.2813C15.625 13.2032 15.625 13.047 15.7031 12.9688C15.7813 12.8907 15.7812 12.8126 15.8594 12.7345C15.9375 12.6563 16.0156 12.5782 16.0938 12.5782C16.4063 12.5001 16.7188 12.5001 16.9531 12.7345C17.0313 12.8126 17.1094 12.8907 17.1094 12.9688C17.1875 13.047 17.1875 13.2032 17.1875 13.2813C17.1875 13.5157 17.1094 13.672 16.9531 13.8282C16.7969 13.9845 16.6406 14.0626 16.4062 14.0626Z" fill="black"/>
<path d="M18.75 14.0626C18.5156 14.0626 18.3594 13.9845 18.2031 13.8282C18.0469 13.672 17.9688 13.5157 17.9688 13.2813C17.9688 13.2032 17.9688 13.047 18.0469 12.9688C18.125 12.8907 18.125 12.8126 18.2031 12.7345C18.2812 12.6563 18.3594 12.5782 18.4375 12.5782C18.75 12.5001 19.0625 12.5001 19.2969 12.7345C19.375 12.8126 19.4531 12.8907 19.4531 12.9688C19.5312 13.047 19.5312 13.2032 19.5312 13.2813C19.5312 13.5157 19.4531 13.672 19.2969 13.8282C19.1406 13.9845 18.9844 14.0626 18.75 14.0626Z" fill="black"/>
<path d="M12.5 23.4375C13.3629 23.4375 14.0625 22.7379 14.0625 21.875C14.0625 21.0121 13.3629 20.3125 12.5 20.3125C11.6371 20.3125 10.9375 21.0121 10.9375 21.875C10.9375 22.7379 11.6371 23.4375 12.5 23.4375Z" stroke="black" stroke-width="2" stroke-miterlimit="10" stroke-linecap="round" stroke-linejoin="round"/>
<path d="M12.5 15.625V20.3125" stroke="black" stroke-width="2" stroke-miterlimit="10" stroke-linecap="round" stroke-linejoin="round"/>
<path d="M7.03125 21.875H10.9375" stroke="black" stroke-width="2" stroke-miterlimit="10" stroke-linecap="round" stroke-linejoin="round"/>
<path d="M14.0625 21.875H17.9688" stroke="black" stroke-width="2" stroke-miterlimit="10" stroke-linecap="round" stroke-linejoin="round"/>
</svg>
