<svg width="27" height="27" viewBox="0 0 27 27" fill="none" xmlns="http://www.w3.org/2000/svg">
<g clip-path="url(#clip0_919_2421)">
<path d="M13.4998 19.2831C13.3197 19.2831 13.1425 19.3562 13.0154 19.4831C12.8876 19.611 12.8145 19.7874 12.8145 19.9674C12.8145 20.1483 12.8876 20.3247 13.0154 20.4527C13.1434 20.5797 13.3197 20.6527 13.4998 20.6527C13.6807 20.6527 13.8571 20.5796 13.9841 20.4527C14.1119 20.3248 14.1851 20.1484 14.1851 19.9674C14.1851 19.7874 14.1119 19.6111 13.9841 19.4831C13.8571 19.3562 13.6807 19.2831 13.4998 19.2831Z" fill="black"/>
<path d="M24.5569 1.94955H15.7217C14.8454 0.821161 14.023 0.192229 13.9496 0.137222C13.706 -0.0458015 13.3705 -0.0457101 13.1267 0.137313C13.0533 0.192412 12.2313 0.821252 11.3555 1.94955H2.4432C1.25917 1.94955 0.295898 2.91282 0.295898 4.09685V20.6561C0.295898 21.8401 1.25917 22.8034 2.4432 22.8034H9.77446L8.83312 25.6292H7.93637C7.5578 25.6292 7.25106 25.9359 7.25106 26.3145C7.25106 26.693 7.5578 26.9998 7.93637 26.9998H9.32499C9.32572 26.9998 9.32654 27 9.32718 27C9.32791 27 9.32873 26.9998 9.32946 26.9998H17.6704C17.6711 26.9998 17.6719 27 17.6726 27C17.6733 27 17.6742 26.9998 17.6748 26.9998H19.0636C19.4422 26.9998 19.7489 26.693 19.7489 26.3145C19.7489 25.9359 19.4422 25.6292 19.0636 25.6292H18.1667L17.2254 22.8034H24.5567C25.7407 22.8034 26.704 21.8401 26.704 20.6561V4.09685C26.7042 2.91282 25.7409 1.94955 24.5569 1.94955ZM24.5569 3.32016C24.985 3.32016 25.3335 3.66857 25.3335 4.09685V16.9628H19.7491V12.6693C19.7491 11.5125 18.9688 10.5354 17.9076 10.2356V8.05976C17.9076 6.16712 17.34 4.57209 16.6345 3.32016H24.5569ZM10.426 14.8924C10.501 14.7799 10.541 14.6477 10.541 14.5125V14.2909H11.9333V15.2943C11.9333 15.7614 12.2434 16.4264 12.5445 16.9628H9.04739L10.426 14.8924ZM8.69925 15.0126V12.6693C8.69925 12.2873 8.88474 11.9478 9.17029 11.7368V14.3052L8.69925 15.0126ZM18.3785 15.0125L17.9076 14.3053V11.737C18.1931 11.9481 18.3785 12.2875 18.3785 12.6694V15.0125ZM16.537 10.8256V12.9203H15.1452V11.8868C15.1452 10.9237 14.4243 10.1403 13.5384 10.1403C12.6534 10.1403 11.9334 10.9237 11.9334 11.8868V12.9203H10.541V10.8256V8.37829H16.537V10.8256ZM13.3039 15.2943V11.8869C13.3039 11.6574 13.4428 11.511 13.5383 11.511C13.6346 11.511 13.7745 11.6575 13.7745 11.8869L13.7746 15.2902C13.7683 15.3951 13.677 15.6254 13.5385 15.9052C13.4009 15.6264 13.31 15.3977 13.3039 15.2943ZM15.1451 15.2943V14.291H16.5369V14.5126C16.5369 14.6479 16.5769 14.78 16.6518 14.8924L18.0304 16.9628H14.5329C14.8346 16.4264 15.1451 15.7615 15.1451 15.2943ZM13.5383 1.59117C14.3367 2.33889 16.0491 4.22093 16.4508 6.90908H10.6271C11.0287 4.22039 12.7408 2.33834 13.5383 1.59117ZM2.4432 3.32016H10.443C9.73782 4.57209 9.17038 6.16712 9.17038 8.05976V10.2357C8.10906 10.5355 7.32873 11.5126 7.32873 12.6694V16.9628H1.66652V4.09685C1.66652 3.66857 2.01493 3.32016 2.4432 3.32016ZM16.7222 25.6292H10.2777L11.2191 22.8034H15.7811L16.7222 25.6292ZM24.5569 21.4328H2.4432C2.01493 21.4328 1.66652 21.0843 1.66652 20.6561V18.3334H25.3336V20.6561C25.3335 21.0844 24.9851 21.4328 24.5569 21.4328Z" fill="black"/>
</g>
<defs>
<clipPath id="clip0_919_2421">
<rect width="27" height="27" fill="white"/>
</clipPath>
</defs>
</svg>
