<svg width="29" height="29" viewBox="0 0 29 29" fill="none" xmlns="http://www.w3.org/2000/svg">
<path d="M28.2983 1.51672H7.8363C7.44877 1.51672 7.13463 1.83093 7.13463 2.2184C7.13463 2.60605 7.44877 2.9202 7.8363 2.9202H27.5966V26.0797H7.8363C7.44877 26.0797 7.13463 26.3938 7.13463 26.7815C7.13463 27.1689 7.44877 27.4831 7.8363 27.4831H28.2983C28.6858 27.4831 28.9999 27.1689 28.9999 26.7815V2.21846C29 1.83099 28.6858 1.51672 28.2983 1.51672Z" fill="black"/>
<path d="M10.6867 18.7636C10.4126 19.0378 10.4126 19.4819 10.6867 19.7561C10.8238 19.8931 11.0035 19.9616 11.1831 19.9616C11.3625 19.9616 11.542 19.893 11.6791 19.7561L16.0065 15.4287C16.2807 15.1546 16.2807 14.7103 16.0065 14.4364L11.6791 10.1084C11.405 9.83413 10.9609 9.83413 10.6867 10.1084C10.4126 10.3822 10.4126 10.8266 10.6867 11.1006L13.8162 14.2307H0.701797C0.314267 14.2306 0 14.5449 0 14.9324C0 15.32 0.314267 15.6343 0.701797 15.6343H13.8162L10.6867 18.7636Z" fill="black"/>
</svg>
